# xmcd CD database file
#
# Track frame offsets:
#	150
#	37283
#	70201
#	115338
#	147288
#	187258
#	221024
#	259934
#	293263
#
# Disc length: 4312 seconds
#
# Revision: 0
# Processed by: cddbd v1.5.2PL0 Copyright (c) Steve Scherf et al.
# Submitted via: CDex 1.70beta2
#
DISCID=9410d609
DTITLE=Sun Ra - Some Blues But Not The Kind Thats Blue
DYEAR=1978
DGENRE=Jazz
TTITLE0=Some Blues But Not The Kind Thats Blue
TTITLE1=I'll Get By
TTITLE2=My Favorite Things
TTITLE3=Untitled
TTITLE4=Nature Boy
TTITLE5=Tenderly
TTITLE6=Black Magic
TTITLE7=I'll Get By
TTITLE8=I'll Get By 
EXTD=YEAR: 1978
EXTT0=
EXTT1=
EXTT2=
EXTT3=
EXTT4=
EXTT5=
EXTT6=
EXTT7=
EXTT8=
PLAYORDER=
